<?xml version="1.0" encoding="UTF-8" standalone="no"?>
<!DOCTYPE svg PUBLIC "-//W3C//DTD SVG 1.1//EN"
 "http://www.w3.org/Graphics/SVG/1.1/DTD/svg11.dtd">
<!-- Generated by graphviz version 12.2.1 (20241206.2353)
 -->
<!-- Pages: 1 -->
<svg width="674pt" height="44pt"
 viewBox="0.00 0.00 674.25 44.00" xmlns="http://www.w3.org/2000/svg" xmlns:xlink="http://www.w3.org/1999/xlink">
<g id="graph0" class="graph" transform="scale(1 1) rotate(0) translate(4 40)">
<polygon fill="white" stroke="none" points="-4,4 -4,-40 670.25,-40 670.25,4 -4,4"/>
<!-- analyze -->
<g id="node1" class="node">
<title>analyze</title>
<polygon fill="lightblue" stroke="black" points="98.5,-36 0,-36 0,0 98.5,0 98.5,-36"/>
<text text-anchor="middle" x="49.25" y="-12.95" font-family="Times,serif" font-size="14.00">Initial Analysis</text>
</g>
<!-- sql -->
<g id="node2" class="node">
<title>sql</title>
<polygon fill="lightgreen" stroke="black" points="290,-36 175.75,-36 175.75,0 290,0 290,-36"/>
<text text-anchor="middle" x="232.88" y="-12.95" font-family="Times,serif" font-size="14.00">SQL Query Agent</text>
</g>
<!-- analyze&#45;&gt;sql -->
<g id="edge1" class="edge">
<title>analyze&#45;&gt;sql</title>
<path fill="none" stroke="black" d="M98.92,-18C118.87,-18 142.31,-18 163.91,-18"/>
<polygon fill="black" stroke="black" points="163.83,-21.5 173.83,-18 163.83,-14.5 163.83,-21.5"/>
<text text-anchor="middle" x="137.12" y="-21.2" font-family="Times,serif" font-size="14.00">Process</text>
</g>
<!-- category -->
<g id="node3" class="node">
<title>category</title>
<polygon fill="lightyellow" stroke="black" points="472.5,-36 371,-36 371,0 472.5,0 472.5,-36"/>
<text text-anchor="middle" x="421.75" y="-12.95" font-family="Times,serif" font-size="14.00">Category Agent</text>
</g>
<!-- sql&#45;&gt;category -->
<g id="edge2" class="edge">
<title>sql&#45;&gt;category</title>
<path fill="none" stroke="black" d="M290.45,-18C312.22,-18 337.18,-18 359.38,-18"/>
<polygon fill="black" stroke="black" points="359.19,-21.5 369.19,-18 359.19,-14.5 359.19,-21.5"/>
<text text-anchor="middle" x="330.5" y="-21.2" font-family="Times,serif" font-size="14.00">Analyze</text>
</g>
<!-- final -->
<g id="node4" class="node">
<title>final</title>
<polygon fill="lightpink" stroke="black" points="666.25,-36 567,-36 567,0 666.25,0 666.25,-36"/>
<text text-anchor="middle" x="616.62" y="-12.95" font-family="Times,serif" font-size="14.00">Final Response</text>
</g>
<!-- category&#45;&gt;final -->
<g id="edge3" class="edge">
<title>category&#45;&gt;final</title>
<path fill="none" stroke="black" d="M472.92,-18C498.1,-18 528.8,-18 555.27,-18"/>
<polygon fill="black" stroke="black" points="555.19,-21.5 565.19,-18 555.19,-14.5 555.19,-21.5"/>
<text text-anchor="middle" x="519.75" y="-21.2" font-family="Times,serif" font-size="14.00">Synthesize</text>
</g>
</g>
</svg>
